<svg width="148" height="147" viewBox="0 0 148 147" fill="none" xmlns="http://www.w3.org/2000/svg">
<g clip-path="url(#clip0_1_2206)">
<path d="M40.4611 107.996V40.1305L147.445 39.9851C140.392 16.8301 119.09 0 93.9345 0H55.9832C23.812 0 0.946728 28.0259 0.946728 54.1617C0.946728 79.643 17.5958 100.872 40.4611 107.996Z" fill="#FF0000"/>
<path d="M104.656 73.4283C104.656 90.8763 90.8787 105.053 73.8661 105.053C56.8535 105.053 43.0761 90.9126 43.0761 73.4283C43.0761 55.9439 56.8535 41.8037 73.8661 41.8037C90.8787 41.8037 104.656 55.9803 104.656 73.4283Z" fill="#FF0000"/>
<path d="M106.983 39.04V106.906L0 107.015C7.01589 130.169 28.318 147 53.4734 147H91.4247C123.596 147 146.461 118.974 146.461 92.8382C146.461 67.3931 129.849 46.1646 106.983 39.04Z" fill="#FF0000"/>
</g>
<defs>
<clipPath id="clip0_1_2206">
<rect width="148" height="147" fill="white"/>
</clipPath>
</defs>
</svg>
