<svg width="1070" height="305" viewBox="0 0 1070 305" fill="none" xmlns="http://www.w3.org/2000/svg">
<g clip-path="url(#clip0_1_1734)">
<path d="M296.54 88.9731L265.764 132.132C261.598 137.902 258.359 143.672 255.351 149.442L254.309 149.095C255.003 144.249 255.003 139.172 255.003 129.132V88.9731H189.864V243.607L141.154 305H216.706L372.092 88.9731H296.54Z" fill="#980000"/>
<path d="M180.493 183.139C180.493 166.175 174.245 149.211 161.981 135.825L111.535 80.8951C107.833 76.8562 103.784 72.8169 99.2715 69.4704L99.6185 68.778C104.478 69.4704 108.18 69.4704 115.122 69.4704H179.567V0.346252H102.28C58.1975 0.346252 30.892 36.12 30.892 72.0091C30.892 88.9731 37.1399 105.936 49.4042 119.323L99.7339 174.253C103.436 178.292 107.486 182.331 111.998 185.677L111.651 186.369C106.791 185.677 103.089 185.677 96.1471 185.677H0V254.686H108.99C153.072 254.802 180.493 218.912 180.493 183.139Z" fill="#980000"/>
<path d="M522.389 81.5875C503.992 81.5875 488.256 89.6654 476.108 101.436C464.075 89.6654 448.34 81.5875 429.828 81.5875C386.093 81.5875 349.879 117.015 349.879 160.636V254.802H417.217V160.636C417.217 153.943 423.117 148.057 429.828 148.057C436.886 148.057 442.439 153.943 442.439 160.636V254.802H449.844H502.372H509.777V160.636C509.777 153.943 515.677 148.057 522.389 148.057C529.446 148.057 535 153.943 535 160.636V254.802H602.337V160.636C602.337 117.015 566.817 81.5875 522.389 81.5875Z" fill="#980000"/>
<path d="M1070 0.346252H1004.86V254.686H1070V0.346252Z" fill="#980000"/>
<path d="M720.468 193.063C707.858 193.063 697.56 182.677 697.56 170.214C697.56 157.635 707.973 147.365 720.468 147.365C732.964 147.365 743.377 157.751 743.377 170.214C743.493 182.793 733.08 193.063 720.468 193.063ZM726.485 82.395C711.097 82.395 694.204 85.9726 682.172 96.82L680.899 96.4738C682.056 91.6273 682.056 85.3954 682.056 82.0488L681.709 0.46167H616.57V254.802H681.709V251.109C681.709 247.416 681.709 245.916 681.014 242.223L682.172 241.53V241.3C693.164 252.725 707.626 258.148 726.601 258.148C771.027 258.148 808.752 223.413 808.752 170.33C808.63 121.862 770.912 82.395 726.485 82.395Z" fill="#980000"/>
<path d="M905.938 193.063C893.328 193.063 883.025 182.677 883.025 170.214C883.025 157.635 893.442 147.365 905.938 147.365C918.893 147.365 928.844 157.751 928.844 170.214C928.959 182.793 918.893 193.063 905.938 193.063ZM905.938 82.395C857.46 82.395 817.885 121.861 817.885 170.214C817.885 218.566 857.46 258.032 905.938 258.032C954.417 258.032 993.984 218.566 993.984 170.214C994.099 121.861 954.532 82.395 905.938 82.395Z" fill="#980000"/>
</g>
<defs>
<clipPath id="clip0_1_1734">
<rect width="1070" height="305" fill="white"/>
</clipPath>
</defs>
</svg>
